<mxfile host="Electron" modified="2024-03-22T16:59:24.057Z" agent="Mozilla/5.0 (Macintosh; Intel Mac OS X 10_15_7) AppleWebKit/537.36 (KHTML, like Gecko) draw.io/24.0.4 Chrome/120.0.6099.109 Electron/28.1.0 Safari/537.36" etag="wjoe4lsyM3W1dT0HTBfm" version="24.0.4" type="device">
  <diagram name="Page-1" id="wu5RAXxP3KEZuKSgYsKQ">
    <mxGraphModel dx="954" dy="727" grid="1" gridSize="10" guides="1" tooltips="1" connect="1" arrows="1" fold="1" page="1" pageScale="1" pageWidth="827" pageHeight="1169" math="0" shadow="0">
      <root>
        <mxCell id="0" />
        <mxCell id="1" parent="0" />
        <mxCell id="aM4crVQ61w1UXVIv17NQ-25" style="edgeStyle=orthogonalEdgeStyle;rounded=0;orthogonalLoop=1;jettySize=auto;html=1;exitX=0.5;exitY=1;exitDx=0;exitDy=0;entryX=0.5;entryY=0;entryDx=0;entryDy=0;" edge="1" parent="1" source="aM4crVQ61w1UXVIv17NQ-1" target="aM4crVQ61w1UXVIv17NQ-7">
          <mxGeometry relative="1" as="geometry" />
        </mxCell>
        <mxCell id="aM4crVQ61w1UXVIv17NQ-1" value="K1" style="rounded=0;whiteSpace=wrap;html=1;fillColor=#dae8fc;strokeColor=#6c8ebf;" vertex="1" parent="1">
          <mxGeometry x="120" y="200" width="80" height="80" as="geometry" />
        </mxCell>
        <mxCell id="aM4crVQ61w1UXVIv17NQ-26" style="edgeStyle=orthogonalEdgeStyle;rounded=0;orthogonalLoop=1;jettySize=auto;html=1;exitX=0.5;exitY=1;exitDx=0;exitDy=0;entryX=0.5;entryY=0;entryDx=0;entryDy=0;" edge="1" parent="1" source="aM4crVQ61w1UXVIv17NQ-2" target="aM4crVQ61w1UXVIv17NQ-11">
          <mxGeometry relative="1" as="geometry" />
        </mxCell>
        <mxCell id="aM4crVQ61w1UXVIv17NQ-2" value="K2" style="rounded=0;whiteSpace=wrap;html=1;fillColor=#fff2cc;strokeColor=#d6b656;" vertex="1" parent="1">
          <mxGeometry x="200" y="200" width="80" height="80" as="geometry" />
        </mxCell>
        <mxCell id="aM4crVQ61w1UXVIv17NQ-27" style="edgeStyle=orthogonalEdgeStyle;rounded=0;orthogonalLoop=1;jettySize=auto;html=1;exitX=0.5;exitY=1;exitDx=0;exitDy=0;" edge="1" parent="1" source="aM4crVQ61w1UXVIv17NQ-3" target="aM4crVQ61w1UXVIv17NQ-8">
          <mxGeometry relative="1" as="geometry" />
        </mxCell>
        <mxCell id="aM4crVQ61w1UXVIv17NQ-3" value="K3" style="rounded=0;whiteSpace=wrap;html=1;fillColor=#e1d5e7;strokeColor=#9673a6;" vertex="1" parent="1">
          <mxGeometry x="280" y="200" width="80" height="80" as="geometry" />
        </mxCell>
        <mxCell id="aM4crVQ61w1UXVIv17NQ-28" style="edgeStyle=orthogonalEdgeStyle;rounded=0;orthogonalLoop=1;jettySize=auto;html=1;exitX=0.5;exitY=1;exitDx=0;exitDy=0;" edge="1" parent="1" source="aM4crVQ61w1UXVIv17NQ-4" target="aM4crVQ61w1UXVIv17NQ-9">
          <mxGeometry relative="1" as="geometry" />
        </mxCell>
        <mxCell id="aM4crVQ61w1UXVIv17NQ-4" value="K4" style="rounded=0;whiteSpace=wrap;html=1;fillColor=#ffe6cc;strokeColor=#d79b00;" vertex="1" parent="1">
          <mxGeometry x="360" y="200" width="80" height="80" as="geometry" />
        </mxCell>
        <mxCell id="aM4crVQ61w1UXVIv17NQ-29" style="edgeStyle=orthogonalEdgeStyle;rounded=0;orthogonalLoop=1;jettySize=auto;html=1;exitX=0.5;exitY=1;exitDx=0;exitDy=0;entryX=0.5;entryY=0;entryDx=0;entryDy=0;" edge="1" parent="1" source="aM4crVQ61w1UXVIv17NQ-5" target="aM4crVQ61w1UXVIv17NQ-10">
          <mxGeometry relative="1" as="geometry" />
        </mxCell>
        <mxCell id="aM4crVQ61w1UXVIv17NQ-5" value="K5" style="rounded=0;whiteSpace=wrap;html=1;fillColor=#f8cecc;strokeColor=#b85450;" vertex="1" parent="1">
          <mxGeometry x="440" y="200" width="80" height="80" as="geometry" />
        </mxCell>
        <mxCell id="aM4crVQ61w1UXVIv17NQ-6" value="Hashmap, to directly get a value" style="text;html=1;align=center;verticalAlign=middle;resizable=0;points=[];autosize=1;strokeColor=none;fillColor=none;" vertex="1" parent="1">
          <mxGeometry x="120" y="170" width="190" height="30" as="geometry" />
        </mxCell>
        <mxCell id="aM4crVQ61w1UXVIv17NQ-13" style="edgeStyle=orthogonalEdgeStyle;rounded=0;orthogonalLoop=1;jettySize=auto;html=1;exitX=1;exitY=0.25;exitDx=0;exitDy=0;entryX=0;entryY=0.25;entryDx=0;entryDy=0;" edge="1" parent="1" source="aM4crVQ61w1UXVIv17NQ-7" target="aM4crVQ61w1UXVIv17NQ-11">
          <mxGeometry relative="1" as="geometry" />
        </mxCell>
        <mxCell id="aM4crVQ61w1UXVIv17NQ-7" value="N1" style="rounded=0;whiteSpace=wrap;html=1;fillColor=#dae8fc;strokeColor=#6c8ebf;" vertex="1" parent="1">
          <mxGeometry x="40" y="360" width="80" height="80" as="geometry" />
        </mxCell>
        <mxCell id="aM4crVQ61w1UXVIv17NQ-15" style="edgeStyle=orthogonalEdgeStyle;rounded=0;orthogonalLoop=1;jettySize=auto;html=1;exitX=1;exitY=0.25;exitDx=0;exitDy=0;entryX=0;entryY=0.25;entryDx=0;entryDy=0;" edge="1" parent="1" source="aM4crVQ61w1UXVIv17NQ-8" target="aM4crVQ61w1UXVIv17NQ-9">
          <mxGeometry relative="1" as="geometry" />
        </mxCell>
        <mxCell id="aM4crVQ61w1UXVIv17NQ-19" style="edgeStyle=orthogonalEdgeStyle;rounded=0;orthogonalLoop=1;jettySize=auto;html=1;exitX=0;exitY=0.75;exitDx=0;exitDy=0;entryX=1;entryY=0.75;entryDx=0;entryDy=0;" edge="1" parent="1" source="aM4crVQ61w1UXVIv17NQ-8" target="aM4crVQ61w1UXVIv17NQ-11">
          <mxGeometry relative="1" as="geometry" />
        </mxCell>
        <mxCell id="aM4crVQ61w1UXVIv17NQ-8" value="N3" style="rounded=0;whiteSpace=wrap;html=1;fillColor=#e1d5e7;strokeColor=#9673a6;" vertex="1" parent="1">
          <mxGeometry x="280" y="360" width="80" height="80" as="geometry" />
        </mxCell>
        <mxCell id="aM4crVQ61w1UXVIv17NQ-16" style="edgeStyle=orthogonalEdgeStyle;rounded=0;orthogonalLoop=1;jettySize=auto;html=1;exitX=1;exitY=0.25;exitDx=0;exitDy=0;entryX=0;entryY=0.25;entryDx=0;entryDy=0;" edge="1" parent="1" source="aM4crVQ61w1UXVIv17NQ-9" target="aM4crVQ61w1UXVIv17NQ-10">
          <mxGeometry relative="1" as="geometry" />
        </mxCell>
        <mxCell id="aM4crVQ61w1UXVIv17NQ-18" style="edgeStyle=orthogonalEdgeStyle;rounded=0;orthogonalLoop=1;jettySize=auto;html=1;exitX=0;exitY=0.75;exitDx=0;exitDy=0;entryX=1;entryY=0.75;entryDx=0;entryDy=0;" edge="1" parent="1" source="aM4crVQ61w1UXVIv17NQ-9" target="aM4crVQ61w1UXVIv17NQ-8">
          <mxGeometry relative="1" as="geometry" />
        </mxCell>
        <mxCell id="aM4crVQ61w1UXVIv17NQ-9" value="N4" style="rounded=0;whiteSpace=wrap;html=1;fillColor=#ffe6cc;strokeColor=#d79b00;" vertex="1" parent="1">
          <mxGeometry x="400" y="360" width="80" height="80" as="geometry" />
        </mxCell>
        <mxCell id="aM4crVQ61w1UXVIv17NQ-17" style="edgeStyle=orthogonalEdgeStyle;rounded=0;orthogonalLoop=1;jettySize=auto;html=1;exitX=0;exitY=0.75;exitDx=0;exitDy=0;entryX=1;entryY=0.75;entryDx=0;entryDy=0;" edge="1" parent="1" source="aM4crVQ61w1UXVIv17NQ-10" target="aM4crVQ61w1UXVIv17NQ-9">
          <mxGeometry relative="1" as="geometry" />
        </mxCell>
        <mxCell id="aM4crVQ61w1UXVIv17NQ-10" value="N5" style="rounded=0;whiteSpace=wrap;html=1;fillColor=#f8cecc;strokeColor=#b85450;" vertex="1" parent="1">
          <mxGeometry x="520" y="360" width="80" height="80" as="geometry" />
        </mxCell>
        <mxCell id="aM4crVQ61w1UXVIv17NQ-14" style="edgeStyle=orthogonalEdgeStyle;rounded=0;orthogonalLoop=1;jettySize=auto;html=1;exitX=1;exitY=0.25;exitDx=0;exitDy=0;entryX=0;entryY=0.25;entryDx=0;entryDy=0;" edge="1" parent="1" source="aM4crVQ61w1UXVIv17NQ-11" target="aM4crVQ61w1UXVIv17NQ-8">
          <mxGeometry relative="1" as="geometry" />
        </mxCell>
        <mxCell id="aM4crVQ61w1UXVIv17NQ-20" style="edgeStyle=orthogonalEdgeStyle;rounded=0;orthogonalLoop=1;jettySize=auto;html=1;exitX=0;exitY=0.75;exitDx=0;exitDy=0;entryX=1;entryY=0.75;entryDx=0;entryDy=0;" edge="1" parent="1" source="aM4crVQ61w1UXVIv17NQ-11" target="aM4crVQ61w1UXVIv17NQ-7">
          <mxGeometry relative="1" as="geometry" />
        </mxCell>
        <mxCell id="aM4crVQ61w1UXVIv17NQ-11" value="N2" style="rounded=0;whiteSpace=wrap;html=1;fillColor=#fff2cc;strokeColor=#d6b656;" vertex="1" parent="1">
          <mxGeometry x="160" y="360" width="80" height="80" as="geometry" />
        </mxCell>
        <mxCell id="aM4crVQ61w1UXVIv17NQ-22" style="edgeStyle=orthogonalEdgeStyle;rounded=0;orthogonalLoop=1;jettySize=auto;html=1;entryX=0.5;entryY=1;entryDx=0;entryDy=0;" edge="1" parent="1" source="aM4crVQ61w1UXVIv17NQ-21" target="aM4crVQ61w1UXVIv17NQ-7">
          <mxGeometry relative="1" as="geometry" />
        </mxCell>
        <mxCell id="aM4crVQ61w1UXVIv17NQ-21" value="Head" style="text;html=1;align=center;verticalAlign=middle;resizable=0;points=[];autosize=1;strokeColor=none;fillColor=none;" vertex="1" parent="1">
          <mxGeometry x="55" y="480" width="50" height="30" as="geometry" />
        </mxCell>
        <mxCell id="aM4crVQ61w1UXVIv17NQ-24" style="edgeStyle=orthogonalEdgeStyle;rounded=0;orthogonalLoop=1;jettySize=auto;html=1;entryX=0.5;entryY=1;entryDx=0;entryDy=0;" edge="1" parent="1" source="aM4crVQ61w1UXVIv17NQ-23" target="aM4crVQ61w1UXVIv17NQ-10">
          <mxGeometry relative="1" as="geometry" />
        </mxCell>
        <mxCell id="aM4crVQ61w1UXVIv17NQ-23" value="Tail" style="text;html=1;align=center;verticalAlign=middle;resizable=0;points=[];autosize=1;strokeColor=none;fillColor=none;" vertex="1" parent="1">
          <mxGeometry x="540" y="480" width="40" height="30" as="geometry" />
        </mxCell>
        <mxCell id="aM4crVQ61w1UXVIv17NQ-30" value="Doubly Linked List to maintain Order" style="text;html=1;align=center;verticalAlign=middle;resizable=0;points=[];autosize=1;strokeColor=none;fillColor=none;" vertex="1" parent="1">
          <mxGeometry x="200" y="450" width="220" height="30" as="geometry" />
        </mxCell>
      </root>
    </mxGraphModel>
  </diagram>
</mxfile>
